<?xml version="1.0" encoding="utf-8"?>
<!-- Generator: Adobe Illustrator 16.0.0, SVG Export Plug-In . SVG Version: 6.00 Build 0)  -->
<!DOCTYPE svg PUBLIC "-//W3C//DTD SVG 1.1//EN" "http://www.w3.org/Graphics/SVG/1.1/DTD/svg11.dtd">
<svg version="1.1" id="Layer_1" xmlns="http://www.w3.org/2000/svg" xmlns:xlink="http://www.w3.org/1999/xlink" x="0px" y="0px"
	 width="30px" height="30px" viewBox="0 0 30 30" enable-background="new 0 0 30 30" xml:space="preserve">
<g>
	<polygon fill="#CB2026" points="0.013,0 0,0 0,0.011 	"/>
	
		<ellipse transform="matrix(-0.2625 -0.9649 0.9649 -0.2625 4.3662 25.715)" fill="#CB2026" cx="12.01" cy="11.189" rx="2.702" ry="1.93"/>
	<path fill="#CB2026" d="M0,30h30V0H0.014C0.01,0.004,0.005,0.008,0,0.011V30z M17.775,10.724h2.91V7.811h0.855v2.913h2.914v0.855
		h-2.914v2.909h-0.855v-2.909h-2.91V10.724z M11.889,15.582v-0.909c0,0-3.703,0.415-3.703-3.17c0-3.587,4.238-3.691,4.238-3.691
		h4.182c0,0.637-1.91,0.413-1.91,0.754c1.082,0.487,1.209,1.314,1.209,2.688c0,2.29-2.143,2.574-2.143,3.549s2.844,1.753,2.844,4.17
		c0,4.035-4.99,3.807-4.99,3.807s-4.312,0.157-4.312-3.091c0-3.251,4.894-3.117,5.146-3.117
		C12.387,15.825,11.889,15.948,11.889,15.582z"/>
	
		<ellipse transform="matrix(0.0676 0.9977 -0.9977 0.0676 30.7399 6.0335)" fill="#CB2026" cx="12.142" cy="19.463" rx="2.286" ry="3.134"/>
</g>
</svg>
