<?xml version="1.0" encoding="utf-8"?>
<!-- Generator: Adobe Illustrator 16.0.0, SVG Export Plug-In . SVG Version: 6.00 Build 0)  -->
<!DOCTYPE svg PUBLIC "-//W3C//DTD SVG 1.1//EN" "http://www.w3.org/Graphics/SVG/1.1/DTD/svg11.dtd">
<svg version="1.1" id="Layer_1" xmlns="http://www.w3.org/2000/svg" xmlns:xlink="http://www.w3.org/1999/xlink" x="0px" y="0px"
	 width="30px" height="30px" viewBox="0 0 30 30" enable-background="new 0 0 30 30" xml:space="preserve">
<g>
	<path fill="#D43738" d="M30,0H0v30h9.142c0-0.022,0.005-0.041,0.005-0.063c-0.01-0.235-0.035-0.467-0.069-0.7
		c-0.03-0.28-0.065-0.559-0.119-0.835c0.013,0.006,0.025,0.013,0.038,0.018c-0.043-1.045-0.008-2.299,0.259-3.436
		c0.288-1.212,1.925-8.146,1.925-8.146s-0.478-0.955-0.478-2.367c0-2.217,1.286-3.87,2.885-3.87c1.36,0,2.016,1.019,2.016,2.244
		c0,1.368-0.871,3.412-1.321,5.307c-0.373,1.585,0.797,2.881,2.361,2.881c2.834,0,4.742-3.64,4.742-7.952
		c0-3.277-2.207-5.73-6.221-5.73c-4.536,0-7.363,3.383-7.363,7.16c0,1.305,0.386,2.223,0.986,2.933
		c0.277,0.328,0.314,0.46,0.216,0.835c-0.074,0.273-0.238,0.937-0.306,1.199c-0.098,0.379-0.407,0.515-0.749,0.375
		C5.859,19,4.887,16.711,4.887,14.14c0-4.249,3.581-9.341,10.686-9.341c5.709,0,9.466,4.131,9.466,8.565
		c0,5.866-3.262,10.25-8.068,10.25c-1.613,0-3.131-0.875-3.652-1.865c0,0-0.869,3.445-1.054,4.111
		c-0.31,1.132-0.913,2.259-1.471,3.15c-0.117,0.098-0.221,0.206-0.315,0.323c-0.265,0.204-0.508,0.424-0.742,0.665H30V0z"/>
</g>
</svg>
