<?xml version="1.0" encoding="utf-8"?>
<!-- Generator: Adobe Illustrator 16.0.0, SVG Export Plug-In . SVG Version: 6.00 Build 0)  -->
<!DOCTYPE svg PUBLIC "-//W3C//DTD SVG 1.1//EN" "http://www.w3.org/Graphics/SVG/1.1/DTD/svg11.dtd">
<svg version="1.1" id="Layer_1" xmlns="http://www.w3.org/2000/svg" xmlns:xlink="http://www.w3.org/1999/xlink" x="0px" y="0px"
	 width="30px" height="30px" viewBox="0 0 30 30" enable-background="new 0 0 30 30" xml:space="preserve">
<path fill="#2EA8E0" d="M0,0v30h30V0H0z M21.879,12.162c0.007,0.138,0.009,0.275,0.009,0.415c0,4.25-3.234,9.151-9.15,9.151
	c-1.818,0-3.506-0.53-4.931-1.445c0.251,0.028,0.507,0.044,0.767,0.044c1.506,0,2.894-0.513,3.995-1.376
	c-1.407-0.024-2.596-0.955-3.005-2.233c0.195,0.038,0.399,0.06,0.606,0.06c0.291,0,0.576-0.041,0.846-0.114
	c-1.472-0.296-2.582-1.596-2.582-3.152V13.47c0.434,0.238,0.931,0.386,1.458,0.402c-0.865-0.579-1.432-1.562-1.432-2.678
	c0-0.589,0.158-1.141,0.436-1.618c1.586,1.947,3.957,3.227,6.629,3.363c-0.055-0.236-0.083-0.483-0.083-0.733
	c0-1.777,1.44-3.218,3.217-3.218c0.926,0,1.761,0.392,2.347,1.018c0.734-0.145,1.421-0.413,2.043-0.781
	c-0.239,0.75-0.749,1.381-1.413,1.778c0.65-0.075,1.271-0.25,1.846-0.505C23.051,11.142,22.508,11.707,21.879,12.162z"/>
</svg>
